<?xml version="1.0" encoding="UTF-8" standalone="no"?>
<svg
   xmlns:dc="http://purl.org/dc/elements/1.1/"
   xmlns:cc="http://creativecommons.org/ns#"
   xmlns:rdf="http://www.w3.org/1999/02/22-rdf-syntax-ns#"
   xmlns:svg="http://www.w3.org/2000/svg"
   xmlns="http://www.w3.org/2000/svg"
   xmlns:sodipodi="http://sodipodi.sourceforge.net/DTD/sodipodi-0.dtd"
   xmlns:inkscape="http://www.inkscape.org/namespaces/inkscape"
   version="1.1"
   x="0px"
   y="0px"
   viewBox="0 0 573.9497 573.9516"
   enable-background="new 0 0 573.9497 573.9516"
   xml:space="preserve"
   id="svg43"
   sodipodi:docname="icon-summer.svg"
   inkscape:version="0.92.4 (5da689c313, 2019-01-14)"><metadata
   id="metadata49"><rdf:RDF><cc:Work
       rdf:about=""><dc:format>image/svg+xml</dc:format><dc:type
         rdf:resource="http://purl.org/dc/dcmitype/StillImage" /><dc:title></dc:title></cc:Work></rdf:RDF></metadata><defs
   id="defs47" /><sodipodi:namedview
   pagecolor="#ffffff"
   bordercolor="#666666"
   borderopacity="1"
   objecttolerance="10"
   gridtolerance="10"
   guidetolerance="10"
   inkscape:pageopacity="0"
   inkscape:pageshadow="2"
   inkscape:window-width="1440"
   inkscape:window-height="849"
   id="namedview45"
   showgrid="false"
   inkscape:zoom="0.4111845"
   inkscape:cx="-52.28891"
   inkscape:cy="286.9758"
   inkscape:window-x="-5"
   inkscape:window-y="-5"
   inkscape:window-maximized="1"
   inkscape:current-layer="svg43" />
<g
   id="Sun"
   transform="matrix(2.0989293,0,0,2.0989293,-5.4946463e-4,-630.7322)">
	<g
   id="g13">
		<path
   d="m 273.9497,519.1606 c 0,30.2608 -24.5273,54.791 -54.79,54.791 H 54.7896 C 24.5298,573.9516 5e-4,549.4214 5e-4,519.1606 V 354.79 C 5e-4,324.5298 24.5298,300 54.7896,300 h 164.3701 c 30.2627,0 54.79,24.5298 54.79,54.79 z"
   id="path2"
   inkscape:connector-curvature="0"
   style="fill:#ffcf09" />
		<path
   id="path4761"
   d="m 77.5205,454.7641 c -8.6509,-31.9863 10.5073,-64.8642 42.79,-73.4336 32.2837,-8.5722 65.4654,10.4092 74.1167,42.3965 8.6495,31.9844 -10.5087,64.8623 -42.7919,73.4326 -32.2828,8.5704 -65.4649,-10.4111 -74.1148,-42.3955 z"
   inkscape:connector-curvature="0"
   style="fill:#ffffff" />
		<path
   id="path4777"
   d="m 112.168,509.3979 -39.8706,39.1113 14.25,-53.7675 10.9629,10.497 z"
   inkscape:connector-curvature="0"
   style="fill:#ffffff" />
		<path
   id="path4779"
   d="m 206.77,462.8139 39.4746,39.5039 -54.2666,-14.1201 10.5957,-10.8623 z"
   inkscape:connector-curvature="0"
   style="fill:#ffffff" />
		<path
   id="path4781"
   d="m 159.7534,369.0796 39.8682,-39.1079 -14.249,53.7651 -10.9629,-10.4971 z"
   inkscape:connector-curvature="0"
   style="fill:#ffffff" />
		<path
   id="path4783"
   d="M 65.1509,415.6655 25.6792,376.1626 79.9424,390.2788 69.3491,401.143 Z"
   inkscape:connector-curvature="0"
   style="fill:#ffffff" />
		<path
   id="path4767"
   d="m 69.0791,472.1655 -56.102,-0.2764 48.4453,-28.0371 0.2617,15.1055 z"
   inkscape:connector-curvature="0"
   style="fill:#ffffff" />
		<path
   id="path4769"
   d="m 169.2183,505.5044 -0.2813,55.5869 -28.292,-48.001 15.2432,-0.2588 z"
   inkscape:connector-curvature="0"
   style="fill:#ffffff" />
		<path
   id="path4771"
   d="m 202.8677,406.2866 56.1035,0.2764 -48.4463,28.0371 -0.2607,-15.1045 z"
   inkscape:connector-curvature="0"
   style="fill:#ffffff" />
		<path
   id="path4773"
   d="m 102.7271,372.9467 0.2783,-55.5849 28.2949,47.9995 -15.2441,0.2573 z"
   inkscape:connector-curvature="0"
   style="fill:#ffffff" />
	</g>
</g>



</svg>